# xmcd
#
# Track frame offsets: 
#        150
#        15837
#        37300
#        54447
#
# Disc length: 1051 seconds
#
# Revision: 0
# Processed by: cddbd v1.4PL0 Copyright (c) Steve Scherf et al.
# Submitted via: ExactAudioCopy v0.90b4
#
DISCID=28041904
DTITLE=Northern State - Hip Hop You Havent Heard
DYEAR=1900
DGENRE=Hip-Hop
TTITLE0=The Man's Dollar
TTITLE1=Dying In Stereo (Feat. Maurice DJ M.O.P. Perry))
TTITLE2=A Thousand Words
TTITLE3=Rewind
EXTD=
EXTT0=
EXTT1=
EXTT2=
EXTT3=
PLAYORDER=
